<?xml version="1.0" standalone="yes"?>
<svg xmlns="http://www.w3.org/2000/svg" width="1024" height="512">
<path style="stroke:#0c0c0c; fill:none;" d="M521 28C500.905 40.78 482.479 43.9341 467 64L458 51L457 51C452.695 56.6006 449.468 63.481 444 68C440.769 48.895 456.109 49.307 466.487 40.1566C471.133 36.0599 468.175 27.5937 472.589 23.6427C475.472 21.0617 481.661 23.5283 485 24.0803C496.624 26.0018 509.82 24.6953 521 28M531 64C547.995 67.202 572.05 74.0101 589 69C586.44 65.436 583.748 60.2239 579.826 58.0278C570.896 53.0268 550.197 57 540 57C535.568 57 524.133 59.046 520.662 55.9769C517.538 53.2145 523.03 51.2338 525.005 51.0586L548 51C554.834 51 562.416 51.9461 569 50C552.856 36.2403 528.591 42.0011 510 50L513 62L512 63C505.505 61.2236 498.689 58.606 493 55C502.658 47.6309 513.669 41.5944 524 35.1921C528.11 32.6451 532.914 28.3478 538 28.4329C554.781 28.7135 566.491 42.1969 579 51C579.932 45.2104 576.746 39.8065 578 34L592.657 49C596.397 53.6773 602.374 75.2642 597.393 80.1458C593.144 84.3095 581.544 84.1123 576 83.9854C555.904 83.5253 543.576 72.6891 527 64M436 46C424.528 61.0582 406.841 72.4059 399.154 90C396.712 95.5887 393.47 101.877 395 108C401.298 99.3303 403.167 87.2685 409.699 79.2245C413.359 74.7174 420.351 74.4556 424.956 71.1497C430.784 66.9661 433 57.7729 434 51M593 129C598.885 115.053 592.197 101.49 589 88L590 87C609.347 92.5841 610.992 114.755 610 132C601.236 125.086 596.836 130.316 589 137C577.517 121.208 567.099 116.328 550.424 107.425C534.452 98.8977 519.667 92.1739 501 94.1736C490.199 95.3307 482.095 101.995 472 104.957C464.177 107.252 448.093 101.999 442.785 108.149C423.296 130.735 437.054 161.873 445 187C431.848 190.888 422.461 188.357 427 173C430.529 176.529 433.916 180.123 438 183C439.847 171.903 431.828 157.497 426.691 148C424.182 143.36 419.183 137.555 421.268 132C425.571 120.53 438.191 103.689 450 99.6096C458.536 96.6611 468.195 98.2124 477 96.331C487.284 94.1337 496.355 88.185 507 87.1713C519.883 85.9444 534.833 92.6303 547 96.2801C553.499 98.2296 561.01 99.298 567 102.557C578.415 108.768 583.332 121.13 593 129M395 108L391 113M551 110C542.226 122.89 547.603 138.482 552 152L535 154C537.109 156.091 546.934 162.84 544.248 166.262C541.984 169.147 535.737 168.081 533 166.682C523.225 161.685 515.024 156.423 503.062 158.163C494.674 159.383 505.516 172.765 502.212 177.362C492.809 190.445 470.847 175.415 462 170C469.119 159.894 478.879 152.078 490 147M551 112C551 119.686 551.167 127.58 553.443 135L558.28 146C559.174 152.286 553.496 159.459 553.094 166C552.399 177.312 557.043 187.348 555.079 199C553.768 206.781 551.268 214.456 548.975 222C548.302 224.213 546.423 228.066 548.644 229.972C551.768 232.654 562.89 231.861 567 232.011C573.548 232.249 581.623 235.957 588 234.528C595.712 232.799 602.932 226.29 611 224C613.449 233.718 606.065 241.585 601 249C610.529 250.985 619.419 242.385 629 243C621.026 251.952 608.266 254.392 597 256.424C569.759 261.339 547.418 258.887 522 247C515.262 258.854 517.656 271.632 514 284C543.003 299.446 576.576 307.605 608 316.573C615.373 318.677 625.126 316.785 631.815 319.603C640.24 323.153 642.48 336.968 652 341.73C661.869 346.667 673.204 347.552 684 348.845C687.433 349.256 694.913 348.922 696.868 352.434C698.88 356.047 694.2 364.303 693.141 368L681 412M394 117C397.746 131.827 387.955 148.087 392.494 164C395.205 173.505 403.973 177.616 409.582 185.001C415.121 192.294 417.797 204.063 419 213C409.716 206.106 409.849 194.712 403.49 186.015C397.06 177.221 386.036 172.772 380.498 163C373.597 150.824 385.782 126.01 394 117M472 144C471.035 146.546 469.897 148.793 468.235 150.986C466.327 153.505 456.164 162.084 455.546 153.941C454.997 146.703 466.535 142.865 472 144M488 150C481.281 159.877 468.712 169.03 483 177C486.988 170.578 487.088 161.054 491.843 155.318C497.653 148.311 519.686 153.624 523 161M523 161C526.541 173.039 535.01 184.54 540.309 196C542.156 199.994 545.74 204.398 545.433 209C544.424 224.094 531.392 223.316 520 224.715C516.875 225.099 509.275 227.214 506.693 224.968C503.071 221.819 509.005 204.599 511 201C515.707 203.747 529.273 213.421 534.674 211.582C538.045 210.434 540.755 204.634 543 202M427 172L427 173M545.012 177.006C552.137 176.907 555.48 192.377 547.945 192.743C539.54 193.152 535.542 177.138 545.012 177.006M406 224C398.53 214.309 382.384 197.099 384 184C388.617 186.188 395.959 188.125 399.062 192.39C405.678 201.487 402.057 216.901 409.394 225.895C412.521 229.728 417.652 231.247 422 233.231C424.752 234.486 430.254 238.144 433 237M435 239C450.722 238.325 468.096 233.923 483 228.999C488.915 227.045 496.382 225.069 500.348 219.895C505.61 213.031 503.644 202.896 506 195C516.929 200.112 526.937 203 539 203M337 412C344.604 393.736 360.285 381.623 369.244 364C371.719 359.132 377.323 351.677 376.476 346C374.153 330.427 355.895 319.435 346.286 308.961C336.208 297.975 328.576 285.017 319.848 273C315.81 267.441 308.913 261.483 306.6 255C305.025 250.588 306 244.627 306 240C306 229.631 304.055 216.963 307 207C320.621 216.482 335.381 228.639 346.385 241.09C355.94 251.9 362.906 265.413 378 269C378.138 257.344 367.599 245.529 370 234C380.893 242.862 384.062 239.379 395 232C396.256 235.348 396.44 243.881 399.589 245.802C402.911 247.828 410.472 244.496 414 243.804C418.724 242.878 427.9 243.071 431.396 239.411C435.265 235.36 431.268 223.186 429 219C422.945 221.684 416.484 223.658 410 225M452 375C456.703 380.526 465.609 381.68 469 388C456.62 388.977 445.755 387.435 434 383C434.827 380.39 436.86 376.155 434.958 373.603C432.635 370.486 423.613 370.735 420 369.87C409.275 367.299 399.057 363.948 391.039 355.96C379.76 344.723 373.585 329.255 363.535 317C357.204 309.279 348.95 304.027 342.09 296.961C334.578 289.222 330.135 279.244 324.85 270C314.818 252.455 305.105 238.073 314 217C327.862 235.193 347.467 249.021 362.83 266C377.345 282.041 389.029 302.702 405.001 316.95C413.206 324.27 420.744 331.623 424.985 342C425.87 344.165 428.884 349.947 426.306 351.879C424.111 353.524 420.004 351.191 418 350.19C410.502 346.444 403.909 340.418 398.615 334C387.12 320.064 374.548 306.415 363.745 292C353.726 278.63 345.838 263.937 334 252C333.613 262.688 350.674 279.368 356.86 288C370.632 307.22 385.27 325.27 402 342C407.56 347.56 413.252 355.288 420 359.382C425.494 362.715 431.44 356.713 436.671 359.201C442.709 362.073 444.328 370.863 451 374C441.762 351.81 423.646 335.855 413 315C420.17 312.881 427.83 315.119 435 313C431.561 309.709 427.825 306.838 425 303C441.371 293.445 457.577 304.723 475 307.75C478.876 308.423 490.676 307.789 492.11 312.303C494.993 321.375 489.402 336.97 490.09 347C490.378 351.21 490.49 357.765 492.564 361.505C494.245 364.536 498.311 365.302 499.208 369.011C500.054 372.511 497.315 374.924 493.996 374.458C479.737 372.457 479.878 347.496 469.786 340.988C457.99 333.382 443.155 334.524 439 317L456 330.535C461.8 333.894 468.766 334.675 473.826 339.329C481.176 346.091 484.972 356.157 491 364M515 285C517.481 304.635 506.646 319.787 504.286 339C503.834 342.685 506.112 355.899 500.896 356.534C495.165 357.232 496.001 348.407 496 345C495.997 336.765 495.32 328.184 496.285 320C496.723 316.292 498.032 311.622 494.682 308.843C483.369 299.463 460.831 304.982 450.603 295.146C446.979 291.66 449 280.661 449 276C449 271.25 447 260.495 450.028 256.6C453.09 252.66 464.423 253.411 469 252.704C484.633 250.289 500.779 246.288 516 242C516.767 245.683 515.844 248.448 514.667 252C513.473 255.601 512.577 261.859 509.49 264.353C506.718 266.593 502.783 264.29 500 263.203C493.663 260.728 485.853 256.898 479 258C491.602 267.156 504.605 271.082 514 284M325 243L333 252M473 255L478 257M443 292C438.956 288.658 436.398 283.986 433 280C427.715 286.216 423.658 293.441 420.604 301C419.551 303.607 418.757 309.14 415.697 310.11C410.533 311.747 402.848 307.498 399.015 304.471C387.831 295.636 378.594 273.169 388.789 261.148C394.046 254.949 407.86 259.422 415 259.91C421.814 260.377 436.815 257.606 442.397 262.028C446.907 265.601 444.499 286.928 443 292M433 278L433 280M560 303C552.645 308.627 541.104 310.698 532 308.606C528.746 307.858 520.387 302.962 523.792 298.603C528.371 292.743 546.161 301.213 552 302M436 314C437.635 314.545 437.455 314.365 438 316M693 412C694.94 396.728 697.318 380.773 701.721 366C702.889 362.08 708.145 353.342 705.303 349.637C697.457 339.408 680.782 341.164 670 339.695C662.359 338.655 654.134 333.602 649 328C664.697 323.371 686.522 334.115 701 339.576C704.747 340.99 714.995 342.824 716.187 347.225C717.524 352.163 711.914 361.276 710.333 366C705.386 380.788 700.087 396.504 698 412M647 328L649 328M343 412C354.732 392.834 366.954 373.268 380 355C394.708 363.585 416.878 370.93 428 384C415.956 388.512 397.584 390.996 385 388C384.694 392.762 389.457 399.388 387.647 403.722C386.306 406.93 380.938 407.618 378 408.37C370.058 410.403 353.888 407.712 348 412M491 364C491 374.01 496.657 378.189 498.313 387C499.591 393.796 494.408 405.617 492 412M453 374C465.345 375.56 475.141 373.843 470 389M470 389L471 412M394 412C397.013 405.018 403.551 395.35 411 392.603C427.94 386.358 454.235 397.146 464 411C451.125 413.17 432.843 404.663 421 400M423 403C428.979 407.559 435.507 410.893 443 412M378 412L384 412M127 476C124.222 460.808 135.028 435.976 150 429.796C153.281 428.442 156.756 430.555 160 431.231C170.437 433.407 182.734 437.46 186.347 449C188.682 456.457 184.727 464.94 180.64 471C160.235 501.26 125.117 481.311 98.0586 476.103C90.7971 474.705 95.5232 494.317 87 487L82 490C78.2855 477.433 82.7927 463.81 81.9105 451C81.5548 445.835 78.0287 438.127 79.6929 433.174C83.0442 423.198 91.2905 432.249 92.5463 438L95 451C105.767 443.076 110.106 429.721 120 421C131.425 435.598 103.585 455.232 96 466C106.275 470.576 117.21 473.883 128 477L128 478L127 479L126 478M338 467C349.721 472.884 362.675 473.775 374 481C375.775 478.404 376.97 475.97 378 473L366 471C370.24 466.244 377.549 466.089 381.272 461.686C388.44 453.211 384.192 431.579 399 430.007C410.593 428.776 411.659 447.201 416.278 453.662C418.198 456.349 422.596 456.427 423.654 459.926C424.735 463.5 418.77 465.208 419.895 470.005C420.926 474.398 426.517 487.337 423.799 491.347C421.799 494.298 413.862 492.423 412.314 489.847C408.237 483.062 412.556 465.675 400.999 467.1C383.787 469.221 391.011 486.658 382.146 496.524C380.133 498.764 371.863 499.477 370.929 495.809C370.195 492.926 372.346 488.825 373 486L336 475C334.725 479.315 337.601 495.962 330 489C324.331 494.186 323.065 486.897 323.004 482L322 446C322 443.019 323.533 433.901 318.852 433.871C311.584 433.824 305.959 439.19 298 438.15C295.717 437.851 292.805 436.193 291.028 438.492C288.991 441.126 289.938 446.878 290.015 450C290.253 459.74 291.777 469.218 290.424 479C289.72 484.084 284.93 491.636 278.643 486.192C276.359 484.215 277.965 478.647 277.996 476L278 449C277.999 446.483 278.781 441.79 276.397 440.067C268.5 434.362 255.389 447.473 247 438C255.683 432.873 263.362 433.73 272.961 431.896L282.289 427.198C285.104 426.621 288.143 428.744 291 428.938C297.019 429.347 303.949 428.353 310 427.91C320.003 427.177 329.803 423.245 340 424.171C353.13 425.362 376.85 435.711 363.606 451.96C357.242 459.769 346.427 462.204 338 467M670 435C663.846 436.743 651.326 433.119 646.603 437.742C643.903 440.385 644.931 446.577 645.015 450C645.279 460.803 646.773 471.156 645.031 481.985C644.314 486.442 636.174 490.274 633.117 485.579C631.608 483.26 632.965 478.634 632.996 476L633 451C633 448.138 634.1 442.02 631.397 440.067C623.5 434.361 610.389 447.474 602 438C611.052 432.654 619.13 434.226 628.911 431.715C632.206 430.869 634.757 427.164 638.171 427.094L649 428.91C657.398 428.392 665.641 425.764 670 435M436 444C433.227 442.522 424.244 445.658 420 445C428.328 434.144 448.626 428.295 462 428.054C477.202 427.78 479.165 438.871 474 450C478.952 452.015 485.479 454.959 486.379 461C486.744 463.454 484.97 465.907 486 468M487 468C490.796 465.416 497.338 464.758 499.861 460.853C505.236 452.533 503.579 429.415 518 429.951C529.105 430.364 529.538 447.032 534.278 453.662C536.198 456.349 540.596 456.427 541.654 459.926C542.762 463.588 536.71 465.672 538.183 471.001C539.146 474.483 544.623 489.341 541.306 491.862C538.131 494.275 531.384 492.299 529.879 488.941C527.106 482.753 529.699 466.217 519.995 466.978C501.721 468.412 509.288 486.35 500.146 496.524C498.133 498.764 489.862 499.478 488.929 495.809C488.063 492.405 490.919 487.182 492.003 484L496 473C491.532 471.679 487.197 472.24 483 470C475.439 479.285 454.184 502.456 442 488C440.925 488.986 438.623 491.529 437.185 489.34C435.513 486.793 438.028 481.017 437.816 478L436 444M335.514 432.042C346.135 424.827 362.911 443.652 348.985 453.034C346.363 454.8 338.813 459.91 335.603 457.867C332.028 455.591 331.849 434.532 335.514 432.042M716 487C728.172 489.026 744.772 478.377 756 483C758.565 474.322 757.2 464.9 760.029 456C761.614 451.013 763.154 441.164 767.077 437.928C783.188 424.641 805.056 443.805 805.895 461C807.004 483.716 775.993 508.946 758 488C746.49 494.38 727.044 494.515 714 495.49C710.654 495.74 700.104 496.924 701.256 490.956C702.146 486.346 707.906 482.201 710.961 479C718.168 471.447 730.434 459.371 729.855 448C729.062 432.446 715.699 444.283 709 446.748C707.026 447.474 697.188 448.6 699.176 444.238C705.985 429.299 736.591 425.786 741.566 444C745.915 459.92 725.329 476.872 716 487M828 487C837.909 488.649 852.138 484.517 861.985 482.387C864.848 481.768 869.856 482.801 869.093 486.943C868.322 491.131 860.143 490.956 857 491.421C846.117 493.032 835.019 495.372 824 495.584C820.978 495.642 814.603 496.549 813.331 492.771C811.953 488.678 818.588 483.471 821 481C828.462 473.356 838.231 463.549 841.211 453L841.855 448C841.062 432.446 827.699 444.283 821 446.748C819.207 447.407 810.329 448.572 810.921 445.01C811.552 441.216 818.061 438.395 821 436.721C832.226 430.325 845.811 427.985 852.821 442C860.574 457.499 836.903 477.334 828 487M889 487C898.909 488.649 913.138 484.517 922.985 482.387C925.848 481.768 930.856 482.801 930.093 486.943C929.322 491.131 921.143 490.956 918 491.421C907.117 493.032 896.019 495.372 885 495.584C881.978 495.642 875.603 496.549 874.331 492.771C872.953 488.678 879.588 483.471 882 481C889.462 473.356 899.231 463.549 902.211 453L902.855 448C902.062 432.446 888.699 444.283 882 446.748C880.207 447.407 871.329 448.572 871.921 445.01C872.552 441.216 879.061 438.395 882 436.721C893.226 430.325 906.811 427.985 913.821 442C921.574 457.499 897.903 477.334 889 487M210 460C208.497 465.037 209.653 491.57 202 485L197 488C193.59 476.463 196.487 459.147 197.019 447.004C197.182 443.286 199.315 438.231 204 438.907C213.94 440.34 222.683 461.606 230 468C232.491 459.573 224.167 436.925 235.004 433.752C240.106 432.258 242.572 439.17 242.906 443L243.09 471C243.382 475.274 245.481 481.598 243.397 485.664C240.598 491.123 230.748 485.715 228.171 482.981L221.65 475L210 460M565 460C563.497 465.037 564.653 491.57 557 485L552 488C548.59 476.463 551.488 459.147 552.019 447.004C552.182 443.285 554.315 438.231 559 438.907C568.94 440.34 577.683 461.606 585 468C587.491 459.573 579.167 436.925 590.004 433.752C595.106 432.258 597.572 439.17 597.906 443L598.089 471C598.382 475.274 600.481 481.598 598.397 485.664C595.599 491.123 585.748 485.715 583.171 482.981L576.651 475L565 460M449 458C448.103 454.967 447.99 452.169 448.001 449C448.012 445.704 447.718 441.248 449.938 438.514C452.692 435.122 463.303 433.426 465.393 438.228C467.86 443.898 462.14 450.354 457.996 453.363C455.261 455.349 452.101 456.709 449 458M152.04 440.028C159.448 436.133 172.321 440.835 174.566 449.001C177.417 459.368 171.273 472.287 161.999 477.175C133.469 492.213 133.587 449.73 152.04 440.028M400 443C404.097 450.775 407.254 462.88 394 459L400 443M518 443C522.097 450.775 525.253 462.88 512 459L518 443M778.418 444.046C784.839 440.126 791.482 451.298 792.945 456C796.008 465.843 791.003 480.526 781.961 485.91C773.99 490.657 770.042 485.807 770.001 478C769.958 469.841 770.368 448.962 778.418 444.046M450 484C447.454 470.587 449.041 466.623 461 461.23C464.176 459.798 470.241 456.295 473.357 459.607C475.994 462.411 473.092 467.507 471.351 470C466.015 477.641 458.967 482.143 450 484"/>
</svg>
